<?xml version="1.0" encoding="UTF-8" standalone="no"?>
<svg id="svg4457" xmlns:rdf="http://www.w3.org/1999/02/22-rdf-syntax-ns#" xmlns="http://www.w3.org/2000/svg" height="169.33mm" width="237.07mm" version="1.1" xmlns:cc="http://creativecommons.org/ns#" xmlns:dc="http://purl.org/dc/elements/1.1/" viewBox="0 0 840.0001 600.00003">
<defs id="defs4459">
<pattern id="pattern6019" width="280.00003" patternUnits="userSpaceOnUse" patternTransform="translate(-430.19 697.46)" height="150.00002">
<g id="g5989" transform="matrix(2 0 0 2 -141.39 -711.4)">
<path id="path5930" d="m74.445 355.7c1.2703 1.6029 2.7781 3.1586 4.5254 4.5859 7.8787 6.4365 12.627 6.173 26.039 7.2656-1.5802-4.9073-2.6123-8.6778-3.7637-11.852h-26.801zm69.324 0c-3.9163 5.385-4.9948 11.172-2.2051 14.596 1.4181 1.7401 3.6268 2.6344 6.2578 2.7187 4.3852 0.14055 9.9116-1.9538 14.836-5.9766 4.4797-3.6594 6.5614-6.9215 8.2617-11.338h-27.15zm-65.947 19.305c-2.6311 0.0844-4.8397 0.9786-6.2578 2.7188-0.36112 0.44313-0.6371 0.93674-0.87109 1.4531v7.2774c1.2369 3.8112 4.1091 7.9269 8.2773 11.332 7.8787 6.4365 12.627 6.173 26.039 7.2656-4.0048-12.437-4.4724-17.634-12.352-24.07-4.9243-4.0228-10.451-6.1171-14.836-5.9766zm132.87 4.1719c-0.92002 2.0303-0.8779 4.5724 0 7.2774v-7.2774zm-35.684 1.291c-13.412 1.0926-18.16 0.82913-26.039 7.2656s-11.188 15.422-7.4062 20.062c1.4181 1.7401 3.6268 2.6344 6.2578 2.7187 4.3852 0.14055 9.9116-1.9538 14.836-5.9766 7.8792-6.4365 8.3467-11.633 12.352-24.07zm-97.188 32.037c-2.6311 0.0844-4.8397 0.9786-6.2578 2.7188-0.36112 0.44313-0.6371 0.93674-0.87109 1.4531v7.2774c0.71843 2.2136 1.9919 4.5251 3.752 6.7461h26.801c-1.7667-4.8699-3.8175-8.3219-8.5879-12.219-4.9243-4.0227-10.451-6.1171-14.836-5.9766zm132.87 4.1719c-0.92002 2.0303-0.8779 4.5724 0 7.2774v-7.2774zm-35.684 1.291c-13.412 1.0926-18.16 0.82914-26.039 7.2656-2.0664 1.688-3.809 3.5524-5.2012 5.4668h27.15c1.2903-3.3515 2.3619-7.3663 4.0898-12.732z" transform="translate(-.000030518)" fill="#697865"/>
<path id="path4154" d="m104.49 355.7v75h2.2266v-25.666c13.009-1.0442 17.773-0.86768 25.547-7.2188 7.8788-6.4365 11.188-15.422 7.4062-20.062-3.7815-4.6402-13.215-3.1787-21.094 3.2578-7.5225 6.1454-8.3216 11.235-11.859 22.5v-35.977c13.009-1.0442 17.773-0.86768 25.547-7.2188 1.7581-1.4362 3.2738-3.0017 4.5488-4.6152h-26.818c-1.0361 2.84-1.9708 6.1502-3.2773 10.311v-10.311h-2.2266zm70 0v75h2.2266v-11.188c1.4436 4.5966 2.4349 8.156 3.6094 11.188h27.154c-1.395-1.9227-3.142-3.7972-5.2168-5.4922-7.7738-6.3511-12.538-6.1746-25.547-7.2188v-35.977c3.5378 11.265 4.3369 16.355 11.859 22.5 7.8788 6.4364 17.312 7.8981 21.094 3.2578 0.4389-0.53857 0.77163-1.1403 1.0234-1.7852v-6.4668c-1.1439-3.9422-4.087-8.2628-8.4297-11.811-7.7738-6.3511-12.538-6.1746-25.547-7.2188v-24.789h-2.2266zm5.8359 0c1.7037 4.397 3.7976 7.6732 8.25 11.311 7.8788 6.4364 17.312 7.8981 21.094 3.2578 0.4389-0.53857 0.77163-1.1403 1.0234-1.7852v-6.4668c-0.59724-2.0583-1.6886-4.2152-3.2129-6.3164h-27.154zm-109.63 6.3164v6.4668c0.7219-1.8488 0.69053-4.087 0-6.4668zm0 37.502v6.4668c0.7219-1.8487 0.69053-4.087 0-6.4668zm62.717 13.029c-4.3794-0.13898-9.9098 1.9401-14.834 5.9629-4.7443 3.8757-6.8127 7.3395-8.582 12.189h26.818c4.4389-5.6174 5.7951-11.842 2.8574-15.447-1.4181-1.7401-3.6321-2.6217-6.2598-2.7051z" transform="translate(-.000030518)" fill="rgba(197, 227, 177, .3"/>
</g>
</pattern>
</defs>
<g id="layer1" transform="translate(430.19 -247.46)">
<rect id="rect5993" height="600" width="840" y="247.46" x="-430.19" fill="url(#pattern6019)"/>
</g>
</svg>
